<mxfile host="65bd71144e">
    <diagram name="Page-1" id="beA6irtENfZuqhENOxo9">
        <mxGraphModel dx="795" dy="1158" grid="0" gridSize="10" guides="1" tooltips="1" connect="1" arrows="1" fold="1" page="1" pageScale="1" pageWidth="827" pageHeight="1169" math="0" shadow="0">
            <root>
                <mxCell id="0"/>
                <mxCell id="1" parent="0"/>
                <mxCell id="8V6ik14wB7esG-wOaiC3-1" value="&lt;ul class=&quot;i8Z77e&quot; style=&quot;margin: 0px; padding: 0px; font-family: &amp;quot;Google Sans&amp;quot;, Arial, sans-serif; font-size: 14px; text-align: start;&quot;&gt;&lt;li class=&quot;TrT0Xe&quot; style=&quot;margin: 0px 0px 4px; padding: 0px; list-style-type: disc;&quot;&gt;&lt;font style=&quot;color: rgb(255, 0, 0);&quot;&gt;get_next_line.c,&amp;nbsp;&lt;/font&gt;&lt;/li&gt;&lt;li class=&quot;TrT0Xe&quot; style=&quot;margin: 0px 0px 4px; padding: 0px; list-style-type: disc;&quot;&gt;&lt;font style=&quot;color: rgb(255, 0, 0);&quot;&gt;get_next_line_utils.c&lt;/font&gt;&lt;/li&gt;&lt;li class=&quot;TrT0Xe&quot; style=&quot;margin: 0px 0px 4px; padding: 0px; list-style-type: disc;&quot;&gt;&lt;font style=&quot;color: rgb(255, 0, 0);&quot;&gt;get_next_line.h&lt;/font&gt;&lt;br&gt;&lt;/li&gt;&lt;/ul&gt;" style="rounded=1;whiteSpace=wrap;html=1;fillColor=#f8cecc;strokeColor=#b85450;gradientColor=none;fontColor=#FF0000;" parent="1" vertex="1">
                    <mxGeometry x="20" y="60" width="170" height="80" as="geometry"/>
                </mxCell>
                <mxCell id="8V6ik14wB7esG-wOaiC3-2" value="char *get_next_line(int fd);" style="rounded=1;whiteSpace=wrap;html=1;" parent="1" vertex="1">
                    <mxGeometry x="20" y="160" width="160" height="50" as="geometry"/>
                </mxCell>
                <mxCell id="8V6ik14wB7esG-wOaiC3-3" value="Static variable" style="shape=cylinder3;whiteSpace=wrap;html=1;boundedLbl=1;backgroundOutline=1;size=15;" parent="1" vertex="1">
                    <mxGeometry x="410" y="60" width="60" height="80" as="geometry"/>
                </mxCell>
                <mxCell id="8V6ik14wB7esG-wOaiC3-4" value="Leer FD considerando BUFFER_SIZE" style="rounded=1;whiteSpace=wrap;html=1;" parent="1" vertex="1">
                    <mxGeometry x="550" y="275" width="120" height="60" as="geometry"/>
                </mxCell>
                <mxCell id="8V6ik14wB7esG-wOaiC3-6" value="Comprobar si en Static Variable hay salto de linea o EOF" style="rhombus;whiteSpace=wrap;html=1;" parent="1" vertex="1">
                    <mxGeometry x="310" y="230" width="170" height="150" as="geometry"/>
                </mxCell>
                <mxCell id="8V6ik14wB7esG-wOaiC3-7" value="Con ft_split() obtener las cadenas." style="rounded=1;whiteSpace=wrap;html=1;" parent="1" vertex="1">
                    <mxGeometry x="335" y="450" width="120" height="60" as="geometry"/>
                </mxCell>
                <mxCell id="8V6ik14wB7esG-wOaiC3-8" value="Devolver cadena(0)" style="rounded=1;whiteSpace=wrap;html=1;" parent="1" vertex="1">
                    <mxGeometry x="335" y="560" width="120" height="60" as="geometry"/>
                </mxCell>
                <mxCell id="8V6ik14wB7esG-wOaiC3-9" value="Limpiar Static Variable" style="rounded=1;whiteSpace=wrap;html=1;" parent="1" vertex="1">
                    <mxGeometry x="335" y="760" width="120" height="60" as="geometry"/>
                </mxCell>
                <mxCell id="8V6ik14wB7esG-wOaiC3-10" value="" style="endArrow=classic;html=1;rounded=0;exitX=0;exitY=0.5;exitDx=0;exitDy=0;entryX=0;entryY=0;entryDx=0;entryDy=27.5;entryPerimeter=0;" parent="1" source="8V6ik14wB7esG-wOaiC3-9" target="8V6ik14wB7esG-wOaiC3-3" edge="1">
                    <mxGeometry width="50" height="50" relative="1" as="geometry">
                        <mxPoint x="470" y="380" as="sourcePoint"/>
                        <mxPoint x="520" y="330" as="targetPoint"/>
                        <Array as="points">
                            <mxPoint x="200" y="790"/>
                            <mxPoint x="190" y="305"/>
                        </Array>
                    </mxGeometry>
                </mxCell>
                <mxCell id="8V6ik14wB7esG-wOaiC3-11" value="AÃ±adir lectura a Static Variable" style="rounded=1;whiteSpace=wrap;html=1;" parent="1" vertex="1">
                    <mxGeometry x="700" y="275" width="120" height="60" as="geometry"/>
                </mxCell>
                <mxCell id="8V6ik14wB7esG-wOaiC3-12" value="" style="endArrow=classic;html=1;rounded=0;entryX=1;entryY=0;entryDx=0;entryDy=27.5;entryPerimeter=0;exitX=0.5;exitY=0;exitDx=0;exitDy=0;" parent="1" source="8V6ik14wB7esG-wOaiC3-11" target="8V6ik14wB7esG-wOaiC3-3" edge="1">
                    <mxGeometry width="50" height="50" relative="1" as="geometry">
                        <mxPoint x="470" y="380" as="sourcePoint"/>
                        <mxPoint x="520" y="330" as="targetPoint"/>
                        <Array as="points">
                            <mxPoint x="760" y="90"/>
                        </Array>
                    </mxGeometry>
                </mxCell>
                <mxCell id="8V6ik14wB7esG-wOaiC3-13" value="" style="endArrow=classic;html=1;rounded=0;entryX=0.5;entryY=0;entryDx=0;entryDy=0;exitX=0.5;exitY=1;exitDx=0;exitDy=0;exitPerimeter=0;" parent="1" source="8V6ik14wB7esG-wOaiC3-3" target="8V6ik14wB7esG-wOaiC3-6" edge="1">
                    <mxGeometry width="50" height="50" relative="1" as="geometry">
                        <mxPoint x="470" y="380" as="sourcePoint"/>
                        <mxPoint x="520" y="330" as="targetPoint"/>
                    </mxGeometry>
                </mxCell>
                <mxCell id="8V6ik14wB7esG-wOaiC3-14" value="" style="endArrow=classic;html=1;rounded=0;exitX=1;exitY=0.5;exitDx=0;exitDy=0;entryX=0;entryY=0.5;entryDx=0;entryDy=0;" parent="1" source="8V6ik14wB7esG-wOaiC3-6" target="8V6ik14wB7esG-wOaiC3-4" edge="1">
                    <mxGeometry width="50" height="50" relative="1" as="geometry">
                        <mxPoint x="470" y="380" as="sourcePoint"/>
                        <mxPoint x="520" y="330" as="targetPoint"/>
                    </mxGeometry>
                </mxCell>
                <mxCell id="8V6ik14wB7esG-wOaiC3-19" value="NO" style="edgeLabel;html=1;align=center;verticalAlign=middle;resizable=0;points=[];" parent="8V6ik14wB7esG-wOaiC3-14" vertex="1" connectable="0">
                    <mxGeometry x="-0.1849" y="-3" relative="1" as="geometry">
                        <mxPoint as="offset"/>
                    </mxGeometry>
                </mxCell>
                <mxCell id="8V6ik14wB7esG-wOaiC3-15" value="" style="endArrow=classic;html=1;rounded=0;exitX=0.5;exitY=1;exitDx=0;exitDy=0;entryX=0.5;entryY=0;entryDx=0;entryDy=0;" parent="1" source="8V6ik14wB7esG-wOaiC3-6" target="8V6ik14wB7esG-wOaiC3-7" edge="1">
                    <mxGeometry width="50" height="50" relative="1" as="geometry">
                        <mxPoint x="490" y="350" as="sourcePoint"/>
                        <mxPoint x="560" y="350" as="targetPoint"/>
                    </mxGeometry>
                </mxCell>
                <mxCell id="8V6ik14wB7esG-wOaiC3-20" value="SI" style="edgeLabel;html=1;align=center;verticalAlign=middle;resizable=0;points=[];" parent="8V6ik14wB7esG-wOaiC3-15" vertex="1" connectable="0">
                    <mxGeometry x="-0.2689" y="1" relative="1" as="geometry">
                        <mxPoint as="offset"/>
                    </mxGeometry>
                </mxCell>
                <mxCell id="8V6ik14wB7esG-wOaiC3-16" value="" style="endArrow=classic;html=1;rounded=0;exitX=0.5;exitY=1;exitDx=0;exitDy=0;entryX=0.5;entryY=0;entryDx=0;entryDy=0;" parent="1" source="8V6ik14wB7esG-wOaiC3-7" target="8V6ik14wB7esG-wOaiC3-8" edge="1">
                    <mxGeometry width="50" height="50" relative="1" as="geometry">
                        <mxPoint x="420" y="460" as="sourcePoint"/>
                        <mxPoint x="490" y="460" as="targetPoint"/>
                    </mxGeometry>
                </mxCell>
                <mxCell id="8V6ik14wB7esG-wOaiC3-17" value="" style="endArrow=classic;html=1;rounded=0;entryX=0.5;entryY=0;entryDx=0;entryDy=0;" parent="1" source="8V6ik14wB7esG-wOaiC3-8" target="8V6ik14wB7esG-wOaiC3-21" edge="1">
                    <mxGeometry width="50" height="50" relative="1" as="geometry">
                        <mxPoint x="540" y="500" as="sourcePoint"/>
                        <mxPoint x="610" y="500" as="targetPoint"/>
                    </mxGeometry>
                </mxCell>
                <mxCell id="8V6ik14wB7esG-wOaiC3-18" value="" style="endArrow=classic;html=1;rounded=0;exitX=1;exitY=0.5;exitDx=0;exitDy=0;entryX=0;entryY=0.5;entryDx=0;entryDy=0;" parent="1" source="8V6ik14wB7esG-wOaiC3-4" target="8V6ik14wB7esG-wOaiC3-11" edge="1">
                    <mxGeometry width="50" height="50" relative="1" as="geometry">
                        <mxPoint x="590" y="370" as="sourcePoint"/>
                        <mxPoint x="660" y="370" as="targetPoint"/>
                    </mxGeometry>
                </mxCell>
                <mxCell id="8V6ik14wB7esG-wOaiC3-21" value="Eliminar ft_split(). Free doble" style="rounded=1;whiteSpace=wrap;html=1;" parent="1" vertex="1">
                    <mxGeometry x="335" y="660" width="120" height="60" as="geometry"/>
                </mxCell>
                <mxCell id="8V6ik14wB7esG-wOaiC3-22" value="" style="endArrow=classic;html=1;rounded=0;entryX=0.5;entryY=0;entryDx=0;entryDy=0;exitX=0.5;exitY=1;exitDx=0;exitDy=0;" parent="1" source="8V6ik14wB7esG-wOaiC3-21" target="8V6ik14wB7esG-wOaiC3-9" edge="1">
                    <mxGeometry width="50" height="50" relative="1" as="geometry">
                        <mxPoint x="440" y="650" as="sourcePoint"/>
                        <mxPoint x="440" y="690" as="targetPoint"/>
                    </mxGeometry>
                </mxCell>
            </root>
        </mxGraphModel>
    </diagram>
</mxfile>
